<?xml version="1.0" encoding="iso-8859-1"?>
<!-- Generator: Adobe Illustrator 18.0.0, SVG Export Plug-In . SVG Version: 6.00 Build 0)  -->
<!DOCTYPE svg PUBLIC "-//W3C//DTD SVG 1.1//EN" "http://www.w3.org/Graphics/SVG/1.1/DTD/svg11.dtd">
<svg version="1.1" xmlns="http://www.w3.org/2000/svg" xmlns:xlink="http://www.w3.org/1999/xlink" x="0px" y="0px"
	 viewBox="0 0 273 61.985" style="enable-background:new 0 0 273 61.985;" xml:space="preserve">
<g id="sprite_x5F_logo">
	<g id="graphics_13_">
		<g>
			<polygon style="fill:#FFFFFF;" points="162.985,11.716 151.73,5.649 151.73,48.938 155.249,48.938 155.249,11.542 
				161.226,14.765 161.226,48.938 164.744,48.938 164.744,14.765 170.722,11.542 170.722,48.938 174.24,48.938 174.24,5.648 			"/>
			<g>
				<g>
					<path style="fill:#FFFFFF;" d="M153.489,55.648c-0.461,0-0.915-0.188-1.244-0.517c-0.329-0.329-0.517-0.775-0.517-1.244
						c0-0.462,0.189-0.917,0.517-1.244c0.657-0.65,1.831-0.65,2.488,0c0.328,0.328,0.518,0.783,0.518,1.244
						c0,0.468-0.19,0.915-0.518,1.244C154.405,55.46,153.951,55.648,153.489,55.648z"/>
				</g>
				<g>
					<path style="fill:#FFFFFF;" d="M161.226,53.888c0-0.972,0.789-1.754,1.761-1.754l0,0c0.972,0,1.754,0.783,1.754,1.754l0,0
						c0,0.971-0.782,1.761-1.754,1.761l0,0C162.016,55.648,161.226,54.859,161.226,53.888z"/>
				</g>
				<g>
					<path style="fill:#FFFFFF;" d="M172.477,55.648c-0.461,0-0.915-0.188-1.244-0.517c-0.322-0.329-0.51-0.775-0.51-1.244
						c0-0.462,0.188-0.917,0.51-1.244c0.657-0.65,1.838-0.65,2.488,0c0.328,0.328,0.518,0.783,0.518,1.244
						c0,0.468-0.189,0.915-0.518,1.244C173.4,55.46,172.946,55.648,172.477,55.648z"/>
				</g>
			</g>
			<g>
				<g>
					<path style="fill:#FFFFFF;" d="M187.889,5.841h0.167l5.081,5.582l5.005-5.582h0.183v10.422h-2.048v-3.869
						c0-0.698,0.078-1.806,0.078-1.806s-0.623,0.911-1.108,1.457l-2.048,2.291H193l-2.047-2.291
						c-0.484-0.545-1.107-1.457-1.107-1.457s0.076,1.107,0.076,1.806v3.869h-2.033V5.841z"/>
					<path style="fill:#FFFFFF;" d="M201.11,11.105c0-3.05,2.369-5.293,5.341-5.293c2.973,0,5.338,2.244,5.338,5.293
						s-2.366,5.295-5.338,5.295C203.479,16.4,201.11,14.155,201.11,11.105z M209.606,11.105c0-1.926-1.273-3.397-3.155-3.397
						c-1.882,0-3.155,1.472-3.155,3.397c0,1.928,1.273,3.398,3.155,3.398C208.333,14.503,209.606,13.033,209.606,11.105z"/>
					<path style="fill:#FFFFFF;" d="M216.4,12.486l-3.581-6.538h2.383l1.457,2.805c0.377,0.729,0.833,1.942,0.833,1.942
						s0.425-1.183,0.803-1.942l1.396-2.805h2.186l-3.338,6.387v3.928H216.4V12.486z"/>
					<path style="fill:#FFFFFF;" d="M233.142,5.948h6.825v1.865h-4.703v2.367h4.142v1.82h-4.142v2.396h4.915v1.866h-7.037V5.948z"/>
					<path style="fill:#FFFFFF;" d="M243.181,5.948h2.124v10.315h-2.124V5.948z"/>
					<path style="fill:#FFFFFF;" d="M247.806,11.105c0-3.05,2.365-5.293,5.337-5.293c2.974,0,5.342,2.244,5.342,5.293
						s-2.368,5.295-5.342,5.295C250.17,16.4,247.806,14.155,247.806,11.105z M256.3,11.105c0-1.926-1.274-3.397-3.157-3.397
						c-1.881,0-3.155,1.472-3.155,3.397c0,1.928,1.274,3.398,3.155,3.398C255.026,14.503,256.3,13.033,256.3,11.105z"/>
					<path style="fill:#FFFFFF;" d="M187.889,22.157h0.167l5.081,5.582l5.005-5.582h0.183v10.422h-2.048v-3.87
						c0-0.697,0.078-1.805,0.078-1.805s-0.623,0.91-1.108,1.457l-2.048,2.29H193l-2.047-2.29c-0.484-0.546-1.107-1.457-1.107-1.457
						s0.076,1.108,0.076,1.805v3.87h-2.033V22.157z"/>
					<path style="fill:#FFFFFF;" d="M201.11,27.42c0-3.049,2.369-5.293,5.341-5.293c2.973,0,5.338,2.244,5.338,5.293
						s-2.366,5.295-5.338,5.295C203.479,32.715,201.11,30.47,201.11,27.42z M209.606,27.42c0-1.926-1.273-3.398-3.155-3.398
						c-1.882,0-3.155,1.472-3.155,3.398c0,1.927,1.273,3.398,3.155,3.398C208.333,30.819,209.606,29.348,209.606,27.42z"/>
					<path style="fill:#FFFFFF;" d="M216.4,28.801l-3.581-6.538h2.383l1.457,2.805c0.377,0.729,0.833,1.942,0.833,1.942
						s0.425-1.184,0.803-1.942l1.396-2.805h2.186l-3.338,6.386v3.93H216.4V28.801z"/>
					<path style="fill:#FFFFFF;" d="M233.186,22.264h2.125v10.316h-2.125V22.264z"/>
					<path style="fill:#FFFFFF;" d="M238.48,22.264h2.123v3.413c0,0.501-0.076,1.213-0.137,1.729
						c0.243-0.546,0.546-1.138,0.91-1.608l2.761-3.534h2.414l-3.52,4.521l3.883,5.795h-2.564l-2.745-4.202l-1.002,1.198v3.004
						h-2.123V22.264z"/>
					<path style="fill:#FFFFFF;" d="M264.443,27.785c-0.517-0.485-1.229-1.412-1.229-1.412s0.151,1.138,0.151,1.881v4.325h-1.986
						V22.172h0.212l5.203,4.884c0.501,0.47,1.213,1.411,1.213,1.411s-0.136-1.167-0.136-1.881v-4.323h1.987V32.67h-0.212
						L264.443,27.785z"/>
					<path style="fill:#FFFFFF;" d="M187.889,38.58h2.124v3.414c0,0.5-0.076,1.213-0.137,1.729c0.243-0.547,0.546-1.139,0.909-1.61
						l2.761-3.533h2.413l-3.52,4.521l3.884,5.794h-2.564l-2.745-4.202l-1.002,1.198v3.004h-2.124V38.58z"/>
					<path style="fill:#FFFFFF;" d="M198.656,38.58h3.625c2.108,0,3.837,1.046,3.837,3.458c0,2.412-1.744,3.474-3.837,3.474h-1.502
						v3.382h-2.123V38.58z M202.22,43.646c1.047,0,1.715-0.47,1.715-1.608c0-1.153-0.698-1.593-1.715-1.593h-1.442v3.201H202.22z"/>
					<path style="fill:#FFFFFF;" d="M208.756,38.58h2.123v4.368h4.416V38.58h2.122v10.315h-2.122v-4.05h-4.416v4.05h-2.123V38.58z"
						/>
					<path style="fill:#FFFFFF;" d="M222.904,40.445h-2.941V38.58h8.009v1.866h-2.943v8.449h-2.126V40.445z"/>
					<path style="fill:#FFFFFF;" d="M230.518,38.58h2.123v4.368h4.415V38.58h2.123v10.315h-2.123v-4.05h-4.415v4.05h-2.123V38.58z"
						/>
				</g>
				<path style="fill:#FFFFFF;" d="M254.469,32.576c0-0.573,0-1.133,0-1.646c0.364-0.224,0.719-0.404,1.029-0.639
					c0.822-0.623,1.212-1.487,1.283-2.497c0.059-0.839-0.104-1.636-0.584-2.343c-0.484-0.711-1.153-1.141-2.008-1.264
					c-1.062-0.153-1.992,0.121-2.731,0.918c-0.625,0.675-0.864,1.503-0.866,2.406c-0.002,1.536,0.81,2.74,2.232,3.327
					c0.024,0.01,0.047,0.022,0.085,0.039c0,0.56,0,1.123,0,1.702c-1.452,0-2.904,0-4.366,0c0-0.604,0-1.2,0-1.827
					c0.449,0,0.891,0,1.333,0c0.019-0.03,0.038-0.06,0.057-0.09c-0.051-0.022-0.108-0.036-0.149-0.07
					c-0.762-0.627-1.196-1.437-1.326-2.409c-0.198-1.492,0.168-2.836,1.11-4.01c0.6-0.748,1.367-1.27,2.269-1.587
					c0.973-0.344,1.971-0.421,2.98-0.201c1.765,0.383,3.051,1.388,3.758,3.056c0.485,1.144,0.569,2.336,0.16,3.533
					c-0.221,0.648-0.603,1.191-1.138,1.624c-0.038,0.03-0.072,0.065-0.095,0.145c0.44,0,0.883,0,1.336,0c0,0.626,0,1.222,0,1.833
					C257.386,32.576,255.934,32.576,254.469,32.576z"/>
				<path style="fill:#FFFFFF;" d="M230.557,5.86c0,0.617,0,1.221,0,1.859c-1.291,0-2.571,0-3.896,0
					c0.05,0.098,0.074,0.153,0.105,0.204c0.559,0.872,1.117,1.746,1.684,2.612c0.128,0.196,0.129,0.356,0.002,0.553
					c-0.671,1.04-1.331,2.087-1.996,3.131c-0.024,0.039-0.044,0.081-0.087,0.161c1.479,0,2.924,0,4.384,0c0,0.646,0,1.257,0,1.882
					c-2.567,0-5.127,0-7.738,0c0.044-0.117,0.064-0.218,0.115-0.299c1.021-1.623,2.046-3.243,3.069-4.864
					c0.034-0.053,0.065-0.107,0.102-0.169c-0.288-0.454-0.572-0.902-0.858-1.349c-0.731-1.145-1.464-2.291-2.195-3.437
					c-0.047-0.076-0.071-0.168-0.12-0.286C225.627,5.86,228.083,5.86,230.557,5.86z"/>
				<path style="fill:#FFFFFF;" d="M249.305,38.536c0,0.617,0,1.221,0,1.859c-1.291,0-2.571,0-3.895,0
					c0.051,0.098,0.074,0.154,0.105,0.204c0.56,0.872,1.117,1.745,1.684,2.612c0.128,0.196,0.129,0.356,0.002,0.554
					c-0.672,1.039-1.332,2.086-1.996,3.131c-0.024,0.039-0.044,0.081-0.087,0.161c1.479,0,2.924,0,4.385,0c0,0.645,0,1.258,0,1.881
					c-2.568,0-5.128,0-7.738,0c0.044-0.116,0.064-0.217,0.114-0.299c1.021-1.622,2.046-3.243,3.069-4.864
					c0.034-0.053,0.065-0.108,0.102-0.169c-0.288-0.453-0.572-0.901-0.857-1.349c-0.732-1.145-1.465-2.29-2.195-3.436
					c-0.048-0.076-0.071-0.168-0.121-0.286C244.375,38.536,246.831,38.536,249.305,38.536z"/>
				<path style="fill:#FFFFFF;" d="M230.557,22.167c0,0.616,0,1.221,0,1.859c-1.291,0-2.571,0-3.896,0
					c0.05,0.098,0.074,0.153,0.105,0.204c0.559,0.872,1.117,1.746,1.684,2.612c0.128,0.196,0.129,0.355,0.002,0.553
					c-0.671,1.04-1.331,2.087-1.996,3.131c-0.024,0.039-0.044,0.081-0.087,0.161c1.479,0,2.924,0,4.384,0c0,0.646,0,1.257,0,1.882
					c-2.567,0-5.127,0-7.738,0c0.044-0.117,0.064-0.219,0.115-0.299c1.021-1.624,2.046-3.243,3.069-4.864
					c0.034-0.053,0.065-0.107,0.102-0.169c-0.288-0.454-0.572-0.902-0.858-1.349c-0.731-1.145-1.464-2.29-2.195-3.437
					c-0.047-0.076-0.071-0.168-0.12-0.286C225.627,22.167,228.083,22.167,230.557,22.167z"/>
			</g>
		</g>
	</g>
	<rect id="area_3_" x="148.5" style="opacity:0;fill:#CCCCCC;" width="124.5" height="61.985"/>
</g>
<g id="sprite_x5F_logo-en">
	<g id="graphics">
		<g>
			<polygon style="fill:#FFFFFF;" points="14.485,11.716 3.231,5.649 3.231,48.938 6.749,48.938 6.749,11.542 12.726,14.765 
				12.726,48.938 16.244,48.938 16.244,14.765 22.222,11.542 22.222,48.938 25.74,48.938 25.74,5.648 			"/>
			<g>
				<g>
					<path style="fill:#FFFFFF;" d="M4.989,55.648c-0.461,0-0.916-0.188-1.244-0.517c-0.329-0.329-0.517-0.775-0.517-1.244
						c0-0.462,0.188-0.917,0.517-1.244c0.657-0.65,1.831-0.65,2.488,0c0.328,0.328,0.518,0.783,0.518,1.244
						c0,0.468-0.189,0.915-0.518,1.244C5.905,55.46,5.451,55.648,4.989,55.648z"/>
				</g>
				<g>
					<path style="fill:#FFFFFF;" d="M12.726,53.888c0-0.972,0.79-1.754,1.761-1.754l0,0c0.972,0,1.754,0.783,1.754,1.754l0,0
						c0,0.971-0.782,1.761-1.754,1.761l0,0C13.516,55.648,12.726,54.859,12.726,53.888z"/>
				</g>
				<g>
					<path style="fill:#FFFFFF;" d="M23.978,55.648c-0.461,0-0.916-0.188-1.244-0.517c-0.322-0.329-0.51-0.775-0.51-1.244
						c0-0.462,0.188-0.917,0.51-1.244c0.657-0.65,1.838-0.65,2.488,0c0.328,0.328,0.517,0.783,0.517,1.244
						c0,0.468-0.189,0.915-0.517,1.244C24.9,55.46,24.446,55.648,23.978,55.648z"/>
				</g>
			</g>
			<g>
				<g>
					<path style="fill:#FFFFFF;" d="M39.389,5.841h0.167l5.082,5.582l5.005-5.582h0.183v10.422h-2.048v-3.869
						c0-0.698,0.078-1.806,0.078-1.806s-0.623,0.911-1.108,1.457l-2.048,2.291H44.5l-2.047-2.291
						c-0.484-0.545-1.107-1.457-1.107-1.457s0.076,1.107,0.076,1.806v3.869h-2.033V5.841z"/>
					<path style="fill:#FFFFFF;" d="M52.61,11.105c0-3.05,2.369-5.293,5.341-5.293c2.973,0,5.338,2.244,5.338,5.293
						S60.924,16.4,57.952,16.4C54.979,16.4,52.61,14.155,52.61,11.105z M61.106,11.105c0-1.926-1.273-3.397-3.155-3.397
						c-1.882,0-3.155,1.472-3.155,3.397c0,1.928,1.273,3.398,3.155,3.398C59.833,14.503,61.106,13.033,61.106,11.105z"/>
					<path style="fill:#FFFFFF;" d="M67.9,12.486l-3.581-6.538h2.383l1.457,2.805c0.377,0.729,0.834,1.942,0.834,1.942
						s0.425-1.183,0.803-1.942l1.396-2.805h2.186l-3.338,6.387v3.928H67.9V12.486z"/>
					<path style="fill:#FFFFFF;" d="M84.642,5.948h6.825v1.865h-4.703v2.367h4.142v1.82h-4.142v2.396h4.915v1.866h-7.037V5.948z"/>
					<path style="fill:#FFFFFF;" d="M94.681,5.948h2.124v10.315h-2.124V5.948z"/>
					<path style="fill:#FFFFFF;" d="M99.306,11.105c0-3.05,2.365-5.293,5.338-5.293c2.974,0,5.342,2.244,5.342,5.293
						s-2.368,5.295-5.342,5.295C101.67,16.4,99.306,14.155,99.306,11.105z M107.8,11.105c0-1.926-1.274-3.397-3.157-3.397
						c-1.881,0-3.155,1.472-3.155,3.397c0,1.928,1.274,3.398,3.155,3.398C106.526,14.503,107.8,13.033,107.8,11.105z"/>
					<path style="fill:#FFFFFF;" d="M39.389,22.157h0.167l5.082,5.582l5.005-5.582h0.183v10.422h-2.048v-3.87
						c0-0.697,0.078-1.805,0.078-1.805s-0.623,0.91-1.108,1.457l-2.048,2.29H44.5l-2.047-2.29c-0.484-0.546-1.107-1.457-1.107-1.457
						s0.076,1.108,0.076,1.805v3.87h-2.033V22.157z"/>
					<path style="fill:#FFFFFF;" d="M52.61,27.42c0-3.049,2.369-5.293,5.341-5.293c2.973,0,5.338,2.244,5.338,5.293
						s-2.366,5.295-5.338,5.295C54.979,32.715,52.61,30.47,52.61,27.42z M61.106,27.42c0-1.926-1.273-3.398-3.155-3.398
						c-1.882,0-3.155,1.472-3.155,3.398c0,1.927,1.273,3.398,3.155,3.398C59.833,30.819,61.106,29.348,61.106,27.42z"/>
					<path style="fill:#FFFFFF;" d="M67.9,28.801l-3.581-6.538h2.383l1.457,2.805c0.377,0.729,0.834,1.942,0.834,1.942
						s0.425-1.184,0.803-1.942l1.396-2.805h2.186l-3.338,6.386v3.93H67.9V28.801z"/>
					<path style="fill:#FFFFFF;" d="M84.686,22.264h2.125v10.316h-2.125V22.264z"/>
					<path style="fill:#FFFFFF;" d="M89.979,22.264h2.123v3.413c0,0.501-0.076,1.213-0.137,1.729
						c0.243-0.546,0.546-1.138,0.91-1.608l2.761-3.534h2.414l-3.521,4.521l3.883,5.795h-2.563l-2.745-4.202l-1.002,1.198v3.004
						h-2.123V22.264z"/>
					<path style="fill:#FFFFFF;" d="M115.943,27.785c-0.517-0.485-1.229-1.412-1.229-1.412s0.151,1.138,0.151,1.881v4.325h-1.986
						V22.172h0.212l5.203,4.884c0.5,0.47,1.213,1.411,1.213,1.411s-0.136-1.167-0.136-1.881v-4.323h1.987V32.67h-0.212
						L115.943,27.785z"/>
					<path style="fill:#FFFFFF;" d="M39.389,38.58h2.124v3.414c0,0.5-0.076,1.213-0.137,1.729c0.243-0.547,0.546-1.139,0.909-1.61
						l2.761-3.533h2.413l-3.52,4.521l3.884,5.794h-2.564l-2.745-4.202l-1.002,1.198v3.004h-2.124V38.58z"/>
					<path style="fill:#FFFFFF;" d="M50.156,38.58h3.625c2.108,0,3.837,1.046,3.837,3.458c0,2.412-1.744,3.474-3.837,3.474h-1.502
						v3.382h-2.123V38.58z M53.72,43.646c1.047,0,1.715-0.47,1.715-1.608c0-1.153-0.698-1.593-1.715-1.593h-1.442v3.201H53.72z"/>
					<path style="fill:#FFFFFF;" d="M60.256,38.58h2.123v4.368h4.416V38.58h2.122v10.315h-2.122v-4.05h-4.416v4.05h-2.123V38.58z"/>
					<path style="fill:#FFFFFF;" d="M74.404,40.445h-2.941V38.58h8.009v1.866h-2.943v8.449h-2.125V40.445z"/>
					<path style="fill:#FFFFFF;" d="M82.018,38.58h2.123v4.368h4.415V38.58h2.123v10.315h-2.123v-4.05h-4.415v4.05h-2.123V38.58z"/>
				</g>
				<path style="fill:#FFFFFF;" d="M105.969,32.576c0-0.573,0-1.133,0-1.646c0.364-0.224,0.719-0.404,1.029-0.639
					c0.822-0.623,1.212-1.487,1.283-2.497c0.059-0.839-0.104-1.636-0.584-2.343c-0.484-0.711-1.153-1.141-2.008-1.264
					c-1.062-0.153-1.992,0.121-2.731,0.918c-0.624,0.675-0.864,1.503-0.866,2.406c-0.002,1.536,0.81,2.74,2.232,3.327
					c0.024,0.01,0.047,0.022,0.085,0.039c0,0.56,0,1.123,0,1.702c-1.452,0-2.904,0-4.366,0c0-0.604,0-1.2,0-1.827
					c0.449,0,0.891,0,1.332,0c0.019-0.03,0.038-0.06,0.057-0.09c-0.051-0.022-0.108-0.036-0.149-0.07
					c-0.762-0.627-1.196-1.437-1.326-2.409c-0.198-1.492,0.169-2.836,1.11-4.01c0.6-0.748,1.367-1.27,2.269-1.587
					c0.973-0.344,1.971-0.421,2.979-0.201c1.765,0.383,3.051,1.388,3.758,3.056c0.485,1.144,0.569,2.336,0.16,3.533
					c-0.221,0.648-0.604,1.191-1.138,1.624c-0.038,0.03-0.072,0.065-0.095,0.145c0.44,0,0.883,0,1.336,0c0,0.626,0,1.222,0,1.833
					C108.886,32.576,107.434,32.576,105.969,32.576z"/>
				<path style="fill:#FFFFFF;" d="M82.057,5.86c0,0.617,0,1.221,0,1.859c-1.291,0-2.571,0-3.896,0
					c0.05,0.098,0.074,0.153,0.105,0.204c0.559,0.872,1.117,1.746,1.684,2.612c0.128,0.196,0.129,0.356,0.002,0.553
					c-0.671,1.04-1.332,2.087-1.996,3.131c-0.024,0.039-0.044,0.081-0.087,0.161c1.479,0,2.924,0,4.384,0c0,0.646,0,1.257,0,1.882
					c-2.567,0-5.127,0-7.738,0c0.044-0.117,0.065-0.218,0.115-0.299c1.021-1.623,2.046-3.243,3.069-4.864
					c0.034-0.053,0.065-0.107,0.102-0.169c-0.288-0.454-0.572-0.902-0.858-1.349c-0.731-1.145-1.464-2.291-2.195-3.437
					c-0.047-0.076-0.071-0.168-0.12-0.286C77.127,5.86,79.583,5.86,82.057,5.86z"/>
				<path style="fill:#FFFFFF;" d="M100.805,38.536c0,0.617,0,1.221,0,1.859c-1.291,0-2.571,0-3.895,0
					c0.051,0.098,0.074,0.154,0.105,0.204c0.56,0.872,1.117,1.745,1.684,2.612c0.128,0.196,0.129,0.356,0.002,0.554
					c-0.672,1.039-1.332,2.086-1.996,3.131c-0.024,0.039-0.044,0.081-0.087,0.161c1.479,0,2.924,0,4.385,0c0,0.645,0,1.258,0,1.881
					c-2.568,0-5.128,0-7.738,0c0.043-0.116,0.064-0.217,0.114-0.299c1.021-1.622,2.046-3.243,3.069-4.864
					c0.034-0.053,0.065-0.108,0.102-0.169c-0.288-0.453-0.572-0.901-0.857-1.349c-0.732-1.145-1.465-2.29-2.195-3.436
					c-0.048-0.076-0.071-0.168-0.121-0.286C95.875,38.536,98.331,38.536,100.805,38.536z"/>
				<path style="fill:#FFFFFF;" d="M82.057,22.167c0,0.616,0,1.221,0,1.859c-1.291,0-2.571,0-3.896,0
					c0.05,0.098,0.074,0.153,0.105,0.204c0.559,0.872,1.117,1.746,1.684,2.612c0.128,0.196,0.129,0.355,0.002,0.553
					c-0.671,1.04-1.332,2.087-1.996,3.131c-0.024,0.039-0.044,0.081-0.087,0.161c1.479,0,2.924,0,4.384,0c0,0.646,0,1.257,0,1.882
					c-2.567,0-5.127,0-7.738,0c0.044-0.117,0.065-0.219,0.115-0.299c1.021-1.624,2.046-3.243,3.069-4.864
					c0.034-0.053,0.065-0.107,0.102-0.169c-0.288-0.454-0.572-0.902-0.858-1.349c-0.731-1.145-1.464-2.29-2.195-3.437
					c-0.047-0.076-0.071-0.168-0.12-0.286C77.127,22.167,79.583,22.167,82.057,22.167z"/>
			</g>
		</g>
	</g>
	<rect id="area_1_" style="opacity:0;fill:#CCCCCC;" width="124.5" height="61.985"/>
</g>
</svg>
